{"title":"UFC Tonight 2015 02 11 DSR x264 -={SPARROW}=-","uid":11696081,"size":465251442,"categoryP":"video","categoryS":"tv_shows","magnet":"?xt=urn:btih:de61d4da32ef70f20d851aaccd6eae6afb43a3ec&amp;dn=UFC+Tonight+2015+02+11+DSR+x264+-%3D%7BSPARROW%7D%3D-&amp;tr=udp%3A%2F%2Ftracker.openbittorrent.com%3A80&amp;tr=udp%3A%2F%2Fopen.demonii.com%3A1337&amp;tr=udp%3A%2F%2Ftracker.coppersurfer.tk%3A6969&amp;tr=udp%3A%2F%2Fexodus.desync.com%3A6969","seeders":1,"leechers":0,"uploader":"CenaCme","files":2,"time":1423720672,"description":"Format : Matroska\nFormat version : Version 4 / Version 2\nFile size : 444 MiB\nDuration : 40mn 1s\nOverall bit rate : 1 550 Kbps\nEncoded date : UTC 2015-02-12 03:39:11\nWriting application : mkvmerge v7.5.0 ('Glass Culture') 32bit built on Jan 4 2015 16:37:25\nWriting library : libebml v1.3.1 + libmatroska v1.4.2\n_STATISTICS_WRITING_APP : mkvmerge v7.5.0 ('Glass Culture') 32bit built on Jan 4 2015 16:37:25\n_STATISTICS_WRITING_DATE_UTC : 2015-02-12 03:39:11\n_STATISTICS_TAGS : BPS DURATION NUMBER_OF_FRAMES NUMBER_OF_BYTES\nDURATION : 00:40:01.155000000\nNUMBER_OF_FRAMES : 71960\nNUMBER_OF_BYTES : 416597661\n\nVideo\nID : 1\nFormat : AVC\nFormat/Info : Advanced Video Codec\nFormat profile : &lt;a class=&quot;__cf_email__&quot; href=&quot;/cdn-cgi/l/email-protection&quot; data-cfemail=&quot;5018393738101c637e60&quot;&gt;[email&amp;#160;protected]&lt;/a&gt;&lt;script cf-hash='f9e31' type=&quot;text/javascript&quot;&gt;\n/* &lt;![CDATA[ */!function(){try{var t=&quot;currentScript&quot;in document?document.currentScript:function(){for(var t=document.getElementsByTagName(&quot;script&quot;),e=t.length;e--;)if(t[e].getAttribute(&quot;cf-hash&quot;))return t[e]}();if(t&amp;&amp;t.previousSibling){var e,r,n,i,c=t.previousSibling,a=c.getAttribute(&quot;data-cfemail&quot;);if(a){for(e=&quot;&quot;,r=parseInt(a.substr(0,2),16),n=2;a.length-n;n+=2)i=parseInt(a.substr(n,2),16)^r,e+=String.fromCharCode(i);e=document.createTextNode(e),c.parentNode.replaceChild(e,c)}}}catch(u){}}();/* ]]&gt; */&lt;/script&gt;\nFormat settings, CABAC : Yes\nFormat settings, ReFrames : 5 frames\nCodec ID : V_MPEG4/ISO/AVC\nDuration : 40mn 1s\nBit rate : 1 359 Kbps\nWidth : 544 pixels\nHeight : 480 pixels\nDisplay aspect ratio : 1.373\nOriginal display aspect ratio : 1.374\nFrame rate mode : Constant\nFrame rate : 29.970 fps\nColor space : YUV\nChroma subsampling : 4:2:0\nBit depth : 8 bits\nScan type : Progressive\nBits/(Pixel*Frame) : 0.174\nStream size : 389 MiB (88%)\nWriting library : x264 core 142 r2389 956c8d8\nEncoding settings : cabac=1 / ref=5 / deblock=1:0:0 /\nanalyse=0x3:0x113 / me=umh / subme=8 / psy=1 /\npsy_rd=1.00:0.00 / mixed_ref=1 / me_range=16 /\nchroma_me=1 / trellis=1 / 8x8dct=1 / cqm=0 /\ndeadzone=21,11 / fast_pskip=1 /\nchroma_qp_offset=-2 / threads=6 /\nlookahead_threads=1 / sliced_threads=0 / nr=0 /\ndecimate=1 / interlaced=0 / bluray_compat=0 /\nconstrained_intra=0 / bframes=3 / b_pyramid=1 /\nb_adapt=2 / b_bias=0 / direct=3 / weightb=1 /\nopen_gop=0 / weightp=2 / keyint=250 /\nkeyint_min=25 / scenecut=40 / intra_refresh=0 /\nrc_lookahead=50 / rc=crf / mbtree=1 / crf=19.0 /\nqcomp=0.60 / qpmin=0 / qpmax=69 / qpstep=4 /\nip_ratio=1.40 / aq=1:1.00\nDefault : Yes\nForced : No\n\nAudio\nID : 2\nFormat : MPEG Audio\nFormat version : Version 1\nFormat profile : Layer 2\nCodec ID : A_MPEG/L2\nCodec ID/Hint : MP2\nDuration : 40mn 1s\nBit rate mode : Constant\nBit rate : 160 Kbps\nChannel(s) : 2 channels\nSampling rate : 48.0 KHz\nCompression mode : Lossy\nStream size : 45.8 MiB (10%)\nLanguage : English\nDefault : Yes\nForced : No","torrent":{"xt":"urn:btih:de61d4da32ef70f20d851aaccd6eae6afb43a3ec","amp;dn":"UFC+Tonight+2015+02+11+DSR+x264+-%3D%7BSPARROW%7D%3D-","amp;tr":["udp%3A%2F%2Ftracker.openbittorrent.com%3A80","udp%3A%2F%2Fopen.demonii.com%3A1337","udp%3A%2F%2Ftracker.coppersurfer.tk%3A6969","udp%3A%2F%2Fexodus.desync.com%3A6969"],"infoHash":"de61d4da32ef70f20d851aaccd6eae6afb43a3ec","infoHashBuffer":{"type":"Buffer","data":[222,97,212,218,50,239,112,242,13,133,26,172,205,110,174,106,251,67,163,236]},"announce":[],"urlList":[]}}